Coordinates

Units are S.I. units (second, meters, Newtons, ...)
If the header above contains a line with 'inDegrees', this indicates whether rotational values are in degrees (yes) or radians (no).

inDegrees=no
nColumns=21
nRows=25
DataType=double
version=3
OpenSimVersion=4.6-2026-03-31-d6972f9e6
endheader
time	/jointset/ground_pelvis/pelvis_tilt/value	/jointset/ground_pelvis/pelvis_list/value	/jointset/ground_pelvis/pelvis_rotation/value	/jointset/ground_pelvis/pelvis_tx/value	/jointset/ground_pelvis/pelvis_ty/value	/jointset/ground_pelvis/pelvis_tz/value	/jointset/hip_r/hip_flexion_r/value	/jointset/hip_r/hip_adduction_r/value	/jointset/hip_r/hip_rotation_r/value	/jointset/walker_knee_r/knee_angle_r/value	/jointset/patellofemoral_r/knee_angle_r_beta/value	/jointset/ankle_r/ankle_angle_r/value	/jointset/subtalar_r/subtalar_angle_r/value	/jointset/hip_l/hip_flexion_l/value	/jointset/hip_l/hip_adduction_l/value	/jointset/hip_l/hip_rotation_l/value	/jointset/walker_knee_l/knee_angle_l/value	/jointset/patellofemoral_l/knee_angle_l_beta/value	/jointset/ankle_l/ankle_angle_l/value	/jointset/subtalar_l/subtalar_angle_l/value
142.496	-0.08721969970121551	-0.1453666130143801	-0.1285033092404585	1.122667459612946	1.084322605109889	-0.3304202257142441	0.48711476880535	0.1724195301098029	0.1300573344300663	0.506841561500207	0.5068415611524429	0.01843537013564138	-0.4349639128556913	-0.3010320793707023	-0.08236389662380608	-0.1552047007160584	0.1280001843154517	0.128000184463591	-0.3046833437848114	-0.3524091547337795
142.5	-0.08916077500884392	-0.1459735026794272	-0.1308846743993296	1.124260766545984	1.086053495727497	-0.3297977242945093	0.480257993287213	0.1755057194304233	0.1284381339329623	0.4642347668314235	0.4642347664777335	0.0219542416180982	-0.4131814807922263	-0.3068019292362089	-0.08421880900027857	-0.1623406204648878	0.1282687372890876	0.1282687374077434	-0.3305281109716211	-0.3415907588318846
142.504	-0.09081917934719821	-0.1456098004848253	-0.1325628959360187	1.125811586668283	1.08766431527469	-0.3292209579723111	0.4732918056497091	0.1772897035881979	0.1259199736153892	0.4232933112418051	0.4232933108807402	0.02638769623278825	-0.3891115451352809	-0.3114506343865543	-0.08548729501991395	-0.1685753528157256	0.1307215994679438	0.1307215995559794	-0.3552303278117303	-0.330894924144814
142.508	-0.09226373207443822	-0.1443381858740579	-0.133560377337236	1.127310550773445	1.089141243846287	-0.3286868065651065	0.4663913610058938	0.1778719329122984	0.1224818476721058	0.384303638638967	0.3843036382647174	0.03169365760883192	-0.3630457760755286	-0.3148841935636865	-0.08624214420488077	-0.1738083205036136	0.1354257921604763	0.1354257922190593	-0.3787635653032224	-0.3205226416267407
142.512	-0.09356123403943548	-0.1422383488825753	-0.1339073501667858	1.128749099705671	1.090472128575856	-0.3281917245002468	0.4597111921396379	0.1773717959986879	0.1181243732393705	0.3475150458841816	0.3475150454880978	0.03779855091574809	-0.3353395326083402	-0.3170260840890188	-0.08656542629358492	-0.1779505075321262	0.1424280815750291	0.142428081607013	-0.4011166732617148	-0.3106584433335355
142.516	-0.0947728526431303	-0.1394044290214496	-0.1336405318809694	1.130119793589283	1.091646700636557	-0.3277319918632544	0.4533794094726081	0.1759230562857801	0.1128710709754886	0.3131339460375812	0.3131339456105601	0.04459909009716794	-0.3064020414465433	-0.3178215465301223	-0.08654493726254896	-0.1809264283210599	0.15175190520292	0.1517519052119554	-0.4222907908352344	-0.3014653291648023
142.52	-0.0959509098730166	-0.1359418595963987	-0.1328017404413708	1.131416588263116	1.092656714848171	-0.3273039501601097	0.447493305003783	0.1736688745988042	0.1067686018192819	0.2813199971581521	0.281319996693631	0.05196514369984862	-0.2766844907719007	-0.3172409004621029	-0.08627040765514749	-0.1826760282615307	0.1633950780575804	0.1633950780470316	-0.4422961630770278	-0.2930808224086651
142.524	-0.09713627510214923	-0.1319637851168733	-0.1314365642262535	1.13263506051938	1.093496009290871	-0.3269042073467793	0.4421166111505521	0.1707566989041708	0.09988592521908796	0.2521842334398525	0.252184232936962	0.05974357682215113	-0.2466665553252333	-0.3152816668915326	-0.08582972344649697	-0.1831564698723861	0.1773284665564448	0.1773284665282089	-0.4611488877347438	-0.285614314597502
142.528	-0.09835639882820517	-0.1275873636933228	-0.1295931414779469	1.133772571721348	1.094160496994754	-0.3265298049976647	0.4372783794990983	0.1673333800171699	0.09231231443277559	0.2257891441935763	0.2257891436598314	0.06776314996113494	-0.216841629306467	-0.3119695332011982	-0.08530550566871732	-0.1823437893254758	0.1934956932239288	0.1934956931773089	-0.4788677409336807	-0.2791458214488916
142.532	-0.09962401485625011	-0.1229302161373574	-0.1273210939985386	1.134828360175262	1.094648101190152	-0.3261783394490676	0.4329734096742874	0.1635408105222793	0.08415431950236621	0.2021505849163597	0.2021505843692662	0.07584044217981349	-0.1877013238707575	-0.3073582161771557	-0.08477232191814862	-0.1802344033982048	0.2118138699638521	0.2118138698947477	-0.4954712907188194	-0.2737261793476764
142.536	-0.1009365917137317	-0.1181071574574011	-0.1246706675155814	1.135803549919021	1.094958639432111	-0.3258480244448702	0.4291642351860679	0.1595122723198468	0.075531990977849	0.1812414216165656	0.1812414210837248	0.08378649251000374	-0.1597202652959683	-0.301528196726756	-0.08429466436294103	-0.1768464094715768	0.2321753261348019	0.2321753260354812	-0.5109755627412731	-0.2693785707709609
142.54	-0.1022765787674374	-0.1132273183497951	-0.1216921175404407	1.136701065981372	1.095093662758168	-0.3255376875138533	0.4257846169502874	0.1553696216553921	0.06657471262982997	0.1629967625523364	0.1629967620699699	0.09141378291199269	-0.1333421898041718	-0.2945843420107191	-0.08392576915934968	-0.1722205817299887	0.2544502529864288	0.2544502528459862	-0.5253924721696513	-0.2661011605488097
142.544	-0.1036124115357455	-0.1083917869679201	-0.1184353610529174	1.137525452948875	1.095056259894037	-0.3252467011077574	0.4227443415950093	0.1512214135614333	0.05741692664512301	0.1473204822603069	0.1473204818704726	0.09854323329873352	-0.1089679757547549	-0.2866525423049384	-0.08370732912223086	-0.1664209653238108	0.2784901351383554	0.2784901349437438	-0.5387290925547288	-0.2638706028285269
142.548	-0.1049002301685286	-0.1036918639888935	-0.1149498935422934	1.138282599605459	1.094850833338598	-0.3249748562088786	0.4199350621160177	0.1471619960019346	0.04819396475458338	0.1340926158079274	0.1340926155549414	0.105010916726099	-0.08694593548654857	-0.2778754996791524	-0.08367008594717999	-0.1595349642614804	0.3041318241953603	0.3041318239327406	-0.550987671732873	-0.2626462141093629
142.552	-0.1060862758192754	-0.09920797129342993	-0.1112849281522273	1.138979378110184	1.094482849303733	-0.3247221933364892	0.417236929326374	0.1432715189585814	0.03903807741286442	0.1231771837729624	0.1231771836996207	0.1106743099121419	-0.06756436298050364	-0.2684077758899377	-0.08383522984688276	-0.1516727931683009	0.3312021116178659	0.3312021112740283	-0.5621661978837118	-0.2623746251927317
142.556	-0.1071098528901471	-0.09500922259771583	-0.1074897041993783	1.139623212487862	1.093958568616145	-0.3244888062589469	0.414525697498225	0.1396167654200195	0.03007479015699846	0.1144300572558862	0.114430057400019	0.1154179146672322	-0.05104633621261126	-0.2584103012584167	-0.08421649052830177	-0.1429662198704522	0.3595225982752952	0.3595225978390147	-0.5722593498171551	-0.2629946262351588
142.56	-0.1079066191494634	-0.09115360087626936	-0.1036139637103745	1.140221596100591	1.09328477676442	-0.3242746247964191	0.4116798750271091	0.1362526804807826	0.02141993849098848	0.107706538445546	0.1077065388372671	0.1191579756080446	-0.03754707826628396	-0.2480447179599503	-0.08482271274547476	-0.1335666546589421	0.3889145458103794	0.3889145452736338	-0.5812597847026765	-0.2644417560518636
142.564	-0.1084119169390837	-0.08768862197424018	-0.09970861150372874	1.140781581551851	1.092468534443621	-0.3240791809276481	0.4085874623656539	0.1332244230264983	0.01317774737752766	0.1028683791618879	0.102868379821659	0.1218460243386133	-0.02715412436284911	-0.2374679879624444	-0.08566063702360591	-0.1236426948825403	0.4192033630899938	0.4192033624490049	-0.5891597385387077	-0.2666521769693248
142.568	-0.108563944323016	-0.08465237289989726	-0.09582649205726189	1.141309269652325	1.091516960050804	-0.3239013735702684	0.4051519254753082	0.130569743518676	0.00544001923195005	0.09978996210705532	0.09978996304438628	0.1234710942041712	-0.01989012098300865	-0.2268275475791083	-0.086737658922416	-0.1133771736897586	0.4502225064374034	0.4502225056935015	-0.595952786482568	-0.2695655873003971
142.572	-0.1083067227387066	-0.08207484576033577	-0.09202311105390359	1.141809324743984	1.09043704005115	-0.3237392592773104	0.4012972507315965	0.1283214937505012	-0.001713836723481169	0.09836339511079649	0.09836339632321356	0.1240605409417243	-0.01571775290033665	-0.2162570387837323	-0.08806444103465431	-0.1029636789871891	0.4818167584858985	0.4818167576461949	-0.6016354705190637	-0.2731271706218055
142.576	-0.1075929082402134	-0.0799794601446512	-0.08835711010158481	1.142284542016939	1.089235455528895	-0.3235898966737375	0.3969720803213356	0.1265100544605766	-0.00821632486533857	0.09850236662337941	0.09850236809547289	0.1236794894966289	-0.01454615873836444	-0.2058725065709412	-0.0896572620300046	-0.09260249093988664	0.5138449368424393	0.5138449359201973	-0.606208490604327	-0.2772886861224137
142.58	-0.1063864320049399	-0.0783846231900424	-0.08489037489408623	1.14273549159661	1.087918421075269	-0.3234492623087339	0.3921528986564566	0.1251654652736421	-0.01401122264406435	0.1001446913201147	0.1001446930229189	0.1224289745355964	-0.01623823612449315	-0.1957690408793285	-0.09153994128954816	-0.08249596715264267	0.5461820301324442	0.5461820291469568	-0.6096772791081869	-0.2820087811501303
142.584	-0.104664799722296	-0.07730517961950432	-0.08168775982847612	1.143160264846315	1.086491549694893	-0.3233122419971353	0.3868460666588198	0.124319096108301	-0.01905285969531906	0.1032534740069342	0.1032534758981441	0.120442807482686	-0.02061840382498	-0.1860180696653415	-0.09374516747675642	-0.07284354995523856	0.5787206477870848	0.5787206467628574	-0.612051953842016	-0.2872525544270766
142.588	-0.1024207959177935	-0.07675363065615855	-0.07881649064791482	1.143554346384632	1.084959768258563	-0.3231726909827788	0.3810884072742794	0.1240047672964376	-0.02330523832868199	0.1078168132256844	0.1078168152510501	0.1178831483911605	-0.02748055048104707	-0.176665633623366	-0.09631509068301519	-0.06383668233985207	0.6113716171163964	0.6113716160816111	-0.6133467816773543	-0.2929903735350415
142.592	-0.09966342486934907	-0.07674103155322627	-0.07634531013263805	1.143910627774221	1.083327301299245	-0.3230235534249973	0.3749461719025501	0.1242592710487784	-0.02674093153740039	0.1138460136250336	0.1138460157209314	0.1149347731078966	-0.03659597804751299	-0.1677318452667224	-0.0993011043696068	-0.05565390905392021	0.6440636394549312	0.6440636384394793	-0.613579320765019	-0.2991960059743904
